<svg xmlns="http://www.w3.org/2000/svg" width="745.875" height="1186" viewBox="0 0 745.875 1186">
  <g id="Grupo_118212" data-name="Grupo 118212" transform="translate(-426.063 -290)">
    <rect id="Rectángulo_41669" data-name="Rectángulo 41669" width="341" height="137" rx="6" transform="translate(633 290)" fill="#242ca3"/>
    <rect id="Rectángulo_41671" data-name="Rectángulo 41671" width="287" height="109" rx="6" transform="translate(442.063 474)" fill="#fec62c"/>
    <rect id="Rectángulo_41672" data-name="Rectángulo 41672" width="315" height="108" rx="6" transform="translate(428.063 632)" fill="none" stroke="#4c53b5" stroke-linecap="round" stroke-width="4"/>
    <rect id="Rectángulo_41673" data-name="Rectángulo 41673" width="323" height="136" rx="6" transform="translate(492.063 817)" fill="#febf10"/>
    <rect id="Rectángulo_41675" data-name="Rectángulo 41675" width="226" height="96" rx="6" transform="translate(531.063 1045)" fill="none" stroke="#242ca3" stroke-linecap="round" stroke-width="4"/>
    <rect id="Rectángulo_42006" data-name="Rectángulo 42006" width="226" height="96" rx="6" transform="translate(882.063 1045)" fill="none" stroke="#242ca3" stroke-linecap="round" stroke-width="4"/>
    <rect id="Rectángulo_42004" data-name="Rectángulo 42004" width="226" height="96" rx="6" transform="translate(531.063 1156)" fill="none" stroke="#242ca3" stroke-linecap="round" stroke-width="4"/>
    <rect id="Rectángulo_42007" data-name="Rectángulo 42007" width="226" height="96" rx="6" transform="translate(882.063 1156)" fill="none" stroke="#242ca3" stroke-linecap="round" stroke-width="4"/>
    <rect id="Rectángulo_42005" data-name="Rectángulo 42005" width="226" height="96" rx="6" transform="translate(531.063 1267)" fill="none" stroke="#242ca3" stroke-linecap="round" stroke-width="4"/>
    <rect id="Rectángulo_42008" data-name="Rectángulo 42008" width="255" height="96" rx="6" transform="translate(862.063 1267)" fill="none" stroke="#242ca3" stroke-linecap="round" stroke-width="4"/>
    <rect id="Rectángulo_42009" data-name="Rectángulo 42009" width="255" height="96" rx="6" transform="translate(862.063 1378)" fill="none" stroke="#242ca3" stroke-linecap="round" stroke-width="4"/>
    <rect id="Rectángulo_41677" data-name="Rectángulo 41677" width="321" height="136" rx="6" transform="translate(834.063 817)" fill="#febf10"/>
    <path id="Trazado_161927" data-name="Trazado 161927" d="M414.668,163.779a1.279,1.279,0,0,0-2.558,0Zm-73.794,97.987a1.281,1.281,0,0,0,0,1.809l8.138,8.138a1.279,1.279,0,0,0,1.809-1.809l-7.234-7.234,7.234-7.234a1.279,1.279,0,0,0-1.809-1.809Zm71.237-97.987V242.21h2.558V163.779Zm-19.182,97.612H341.779v2.557h51.151Zm19.182-19.182a19.182,19.182,0,0,1-19.182,19.182v2.557a21.739,21.739,0,0,0,21.739-21.739Z" transform="translate(390.138 266.033)" fill="#5c50e5"/>
    <path id="Trazado_164470" data-name="Trazado 164470" d="M340.5,163.779a1.507,1.507,0,0,1,2.979,0Zm49.889,97.987a1.157,1.157,0,0,1,0,1.809l-9.48,8.138a1.671,1.671,0,0,1-2.107,0,1.157,1.157,0,0,1,0-1.809l8.427-7.234-8.427-7.234a1.157,1.157,0,0,1,0-1.809,1.671,1.671,0,0,1,2.107,0Zm-46.91-97.987V242.21H340.5V163.779Zm22.344,97.612h23.513v2.557H365.823ZM343.479,242.21c0,10.593,10,19.181,22.344,19.181v2.557c-13.985,0-25.323-9.733-25.323-21.739Z" transform="translate(129.688 830.42)" fill="#ffa629"/>
    <path id="Trazado_164473" data-name="Trazado 164473" d="M390.825,163.779a1.507,1.507,0,0,0-2.979,0Zm-49.889,97.987a1.157,1.157,0,0,0,0,1.809l9.48,8.138a1.671,1.671,0,0,0,2.107,0,1.157,1.157,0,0,0,0-1.809L344.1,262.67l8.427-7.234a1.157,1.157,0,0,0,0-1.809,1.671,1.671,0,0,0-2.107,0Zm46.91-97.987V242.21h2.979V163.779ZM365.5,261.391H341.99v2.557H365.5Zm22.344-19.181c0,10.593-10,19.181-22.344,19.181v2.557c13.985,0,25.323-9.733,25.323-21.739Z" transform="translate(781.112 829.42)" fill="#ffa629"/>
    <path id="Trazado_164471" data-name="Trazado 164471" d="M340.5,132.208a1.507,1.507,0,0,1,2.979,0Zm49.889,129.558a1.157,1.157,0,0,1,0,1.809l-9.48,8.138a1.671,1.671,0,0,1-2.107,0,1.157,1.157,0,0,1,0-1.809l8.427-7.234-8.427-7.234a1.157,1.157,0,0,1,0-1.809,1.671,1.671,0,0,1,2.107,0Zm-46.91-129.558v110H340.5v-110Zm22.344,129.184h23.513v2.557H365.823ZM343.479,242.21c0,10.593,10,19.181,22.344,19.181v2.557c-13.985,0-25.323-9.733-25.323-21.739Z" transform="translate(129.688 940.007)" fill="#ffa629"/>
    <path id="Trazado_164475" data-name="Trazado 164475" d="M390.825,132.208a1.507,1.507,0,0,0-2.979,0ZM340.936,261.765a1.157,1.157,0,0,0,0,1.809l9.48,8.138a1.671,1.671,0,0,0,2.107,0,1.157,1.157,0,0,0,0-1.809L344.1,262.67l8.427-7.234a1.157,1.157,0,0,0,0-1.809,1.671,1.671,0,0,0-2.107,0Zm46.91-129.558v110h2.979v-110ZM365.5,261.391H341.99v2.557H365.5Zm22.344-19.181c0,10.593-10,19.181-22.344,19.181v2.557c13.985,0,25.323-9.733,25.323-21.739Z" transform="translate(781.112 939.007)" fill="#ffa629"/>
    <path id="Trazado_164472" data-name="Trazado 164472" d="M340.5,132.208a1.507,1.507,0,0,1,2.979,0Zm49.889,129.558a1.157,1.157,0,0,1,0,1.809l-9.48,8.138a1.671,1.671,0,0,1-2.107,0,1.157,1.157,0,0,1,0-1.809l8.427-7.234-8.427-7.234a1.157,1.157,0,0,1,0-1.809,1.671,1.671,0,0,1,2.107,0Zm-46.91-129.558v110H340.5v-110Zm22.344,129.184h23.513v2.557H365.823ZM343.479,242.21c0,10.593,10,19.181,22.344,19.181v2.557c-13.985,0-25.323-9.733-25.323-21.739Z" transform="translate(129.688 1050.492)" fill="#ffa629"/>
    <path id="Trazado_164476" data-name="Trazado 164476" d="M390.825,132.208a1.507,1.507,0,0,0-2.979,0ZM340.936,261.765a1.157,1.157,0,0,0,0,1.809l9.48,8.138a1.671,1.671,0,0,0,2.107,0,1.157,1.157,0,0,0,0-1.809L344.1,262.67l8.427-7.234a1.157,1.157,0,0,0,0-1.809,1.671,1.671,0,0,0-2.107,0Zm46.91-129.558v110h2.979v-110ZM365.5,261.391H341.99v2.557H365.5Zm22.344-19.181c0,10.593-10,19.181-22.344,19.181v2.557c13.985,0,25.323-9.733,25.323-21.739Z" transform="translate(781.112 1049.492)" fill="#ffa629"/>
    <path id="Trazado_164477" data-name="Trazado 164477" d="M390.825,132.208a1.507,1.507,0,0,0-2.979,0ZM340.936,261.765a1.157,1.157,0,0,0,0,1.809l9.48,8.138a1.671,1.671,0,0,0,2.107,0,1.157,1.157,0,0,0,0-1.809L344.1,262.67l8.427-7.234a1.157,1.157,0,0,0,0-1.809,1.671,1.671,0,0,0-2.107,0Zm46.91-129.558v110h2.979v-110ZM365.5,261.391H341.99v2.557H365.5Zm22.344-19.181c0,10.593-10,19.181-22.344,19.181v2.557c13.985,0,25.323-9.733,25.323-21.739Z" transform="translate(781.112 1160.492)" fill="#ffa629"/>
    <path id="Trazado_161929" data-name="Trazado 161929" d="M399.691,163.779a1.279,1.279,0,0,0-2.558,0ZM247.466,548.313a1.281,1.281,0,0,0,1.809,0l8.138-8.138a1.279,1.279,0,1,0-1.809-1.809l-7.234,7.234-7.234-7.234a1.279,1.279,0,0,0-1.809,1.809ZM397.134,163.779V494.553h2.558V163.779ZM377.952,513.734H268.831v2.558H377.952Zm-130.86,21.739v11.935h2.558V535.473Zm21.739-21.739a21.739,21.739,0,0,0-21.739,21.739h2.558a19.182,19.182,0,0,1,19.182-19.181Zm128.3-19.181a19.182,19.182,0,0,1-19.181,19.181v2.558a21.739,21.739,0,0,0,21.739-21.739Z" transform="translate(405.114 266.033)" fill="#5c50e5"/>
    <path id="Trazado_161930" data-name="Trazado 161930" d="M427.058,163.779a1.279,1.279,0,0,0-2.558,0ZM615.837,541.493a1.281,1.281,0,0,0,1.809,0l8.138-8.138a1.279,1.279,0,0,0-1.809-1.809l-7.233,7.234-7.234-7.234a1.279,1.279,0,0,0-1.809,1.809ZM424.5,163.779V494.553h2.558V163.779Zm21.739,352.513H596.281v-2.558H446.239Zm169.223,19.181v5.115h2.557v-5.115Zm-19.182-19.181a19.182,19.182,0,0,1,19.182,19.181h2.557a21.739,21.739,0,0,0-21.739-21.739ZM424.5,494.553a21.739,21.739,0,0,0,21.739,21.739v-2.558a19.182,19.182,0,0,1-19.181-19.181Z" transform="translate(377.748 266.033)" fill="#5c50e5"/>
    <path id="Trazado_161931" data-name="Trazado 161931" d="M169.65,347.779a1.279,1.279,0,0,0-2.558,0ZM167.466,389.6a1.281,1.281,0,0,0,1.809,0l8.138-8.138a1.279,1.279,0,0,0-1.809-1.809l-7.234,7.234-7.234-7.234a1.279,1.279,0,0,0-1.809,1.809Zm-.374-41.825V388.7h2.558v-40.92Z" transform="translate(416.913 238.895)" fill="#ffa629"/>
    <path id="Trazado_161934" data-name="Trazado 161934" d="M249.922,1052.92h0ZM431.953,1012h0ZM409.2,1033.739H272.676v-2.558H409.2Zm-136.523,0c-11.781,0-21.332,8.585-21.332,19.181H248.5c0-12,10.824-21.739,24.176-21.739ZM433.375,1012c0,12-10.824,21.739-24.176,21.739v-2.558c11.781,0,21.332-8.585,21.332-19.181Z" transform="translate(221.688 -59)" fill="#ffa629"/>
    <path id="Trazado_164474" data-name="Trazado 164474" d="M431.953,1052.92h0ZM249.922,1012h0Zm22.754,21.739H409.2v-2.558H272.676Zm136.523,0c11.781,0,21.332,8.585,21.332,19.181h2.844c0-12-10.824-21.739-24.176-21.739ZM248.5,1012c0,12,10.824,21.739,24.176,21.739v-2.558c-11.781,0-21.332-8.585-21.332-19.181Z" transform="translate(738.563 -59)" fill="#ffa629"/>
    <text id="Gestión_documental" data-name="Gestión documental" transform="translate(695 329.89)" fill="#fff" font-size="24" font-family="Roboto-Bold, Roboto" font-weight="700"><tspan x="0" y="0">Gestión documental</tspan></text>
    <text id="Proceso_mediante_el_cual_se_realiza_una_administración_de_la_información_documentada_en_la_organización." data-name="Proceso mediante el cual se realiza una administración de la información documentada en la organización." transform="translate(650 341.89)" fill="#fff" font-size="14" font-family="Roboto-Regular, Roboto"><tspan x="-123.013" y="13">Proceso mediante el cual se realiza una </tspan><tspan x="-146.928" y="37">administración de la información documentada </tspan><tspan x="-58.471" y="61">en la organización.</tspan></text>
    <text id="elementos_que_soportan_los_procesos_en_la_estructura_organizacional." data-name="elementos que soportan los procesos en la estructura organizacional." transform="translate(462.063 524.112)" font-size="14" font-family="Roboto-Regular, Roboto"><tspan x="-117.24" y="13">elementos que soportan los procesos </tspan><tspan x="-97.392" y="37">en la estructura organizacional.</tspan></text>
    <text id="Requieren_de_la_aplicación_de_diferentes_técnicas_para_su_elaboración_actualización_y_control_pueden_ser_internos_o_externos_." data-name="Requieren de la aplicación de diferentes técnicas para su elaboración, actualización y control (pueden ser internos o externos)." transform="translate(446.563 648.38)" font-size="14" font-family="Roboto-Regular, Roboto"><tspan x="15.375" y="13">Requieren de la aplicación de diferentes </tspan><tspan x="0.398" y="37">técnicas para su elaboración, actualización y </tspan><tspan x="12.785" y="61">control (pueden ser internos o externos).</tspan></text>
    <text id="actividades_que_se_realizan_en_la_organización_y_que_garantizan_la_generación_de_valor_y_el_cumplimiento_del_objeto_del_negocio." data-name="actividades que se realizan en la organización y que garantizan la generación de valor y el cumplimiento del objeto del negocio." transform="translate(504.893 861.398)" font-size="14" font-family="Roboto-Regular, Roboto"><tspan x="1.285" y="13">actividades que se realizan en la organización y </tspan><tspan x="20.688" y="37">que garantizan la generación de valor y el </tspan><tspan x="34.241" y="61">cumplimiento del objeto del negocio.</tspan></text>
    <text id="Operacionales:_cumplimiento_del_objetivo_del_negocio." data-name="Operacionales: cumplimiento del objetivo del negocio." transform="translate(547.063 1069.108)" font-size="14" font-family="Roboto-Bold, Roboto" font-weight="700"><tspan x="3.563" y="13">Operacionales:</tspan><tspan y="13" xml:space="preserve" font-family="Roboto-Regular, Roboto" font-weight="400"> cumplimiento </tspan><tspan x="19.795" y="37" font-family="Roboto-Regular, Roboto" font-weight="400">del objetivo del negocio.</tspan></text>
    <text id="Ley_General_de_Archivo:_aporta_normativa." data-name="Ley General de Archivo: aporta normativa." transform="translate(898.063 1069.108)" font-size="14" font-family="Roboto-Bold, Roboto" font-weight="700"><tspan x="20.65" y="13">Ley General de Archivo: </tspan><tspan x="39.773" y="37" font-family="Roboto-Regular, Roboto" font-weight="400">aporta normativa.</tspan></text>
    <text id="Estratégicos:_transversales_velan_por_la_mejora_continua." data-name="Estratégicos: transversales, velan por la mejora continua." transform="translate(547.063 1180.108)" font-size="14" font-family="Roboto-Bold, Roboto" font-weight="700"><tspan x="8.947" y="13">Estratégicos: </tspan><tspan y="13" font-family="Roboto-Regular, Roboto" font-weight="400">transversales, </tspan><tspan x="5.437" y="37" font-family="Roboto-Regular, Roboto" font-weight="400">velan por la mejora continua.</tspan></text>
    <text id="Guías_técnicas:_permiten_orientar_la_creación_y_actualización_de_documentos." data-name="Guías técnicas: permiten orientar la creación y actualización de documentos." transform="translate(898.063 1170.094)" font-size="14" font-family="Roboto-Bold, Roboto" font-weight="700"><tspan x="17.317" y="13">Guías técnicas: </tspan><tspan y="13" font-family="Roboto-Regular, Roboto" font-weight="400">permiten </tspan><tspan x="30.196" y="37" font-family="Roboto-Regular, Roboto" font-weight="400">orientar la creación y </tspan><tspan x="1.738" y="61" font-family="Roboto-Regular, Roboto" font-weight="400">actualización de documentos.</tspan></text>
    <text id="De_soporte:_sustentan_los_demás_y_garantizan_coherencia_en_el_sistema." data-name="De soporte: sustentan los demás y garantizan coherencia en el sistema." transform="translate(543.063 1280.108)" font-size="14" font-family="Roboto-Bold, Roboto" font-weight="700"><tspan x="21.959" y="13">De soporte: </tspan><tspan y="13" font-family="Roboto-Regular, Roboto" font-weight="400">sustentan los </tspan><tspan x="5.262" y="37" font-family="Roboto-Regular, Roboto" font-weight="400">demás y garantizan coherencia </tspan><tspan x="58.866" y="61" font-family="Roboto-Regular, Roboto" font-weight="400">en el sistema.</tspan></text>
    <text id="Tablas_de_retención:_permiten_registrar_y_controlar_los_documentos_del_Sistema_de_Gestión." data-name="Tablas de retención: permiten registrar y controlar los documentos del Sistema de Gestión." transform="translate(874.57 1279.985)" font-size="14" font-family="Roboto-Bold, Roboto" font-weight="700"><tspan x="21.989" y="13">Tablas de retención:</tspan><tspan y="13" xml:space="preserve" font-family="Roboto-Regular, Roboto" font-weight="400"> permiten </tspan><tspan x="2.544" y="37" font-family="Roboto-Regular, Roboto" font-weight="400">registrar y controlar los documentos </tspan><tspan x="41.615" y="61" font-family="Roboto-Regular, Roboto" font-weight="400">del Sistema de Gestión.</tspan></text>
    <text id="Herramientas_ofimáticas:_instrumentos_para_la_sistematización_del_Sistema_de_Gestión." data-name="Herramientas ofimáticas: instrumentos para la sistematización del Sistema de Gestión." transform="translate(868.324 1390.108)" font-size="14" font-family="Roboto-Bold, Roboto" font-weight="700"><tspan x="41.442" y="13">Herramientas ofimáticas:</tspan><tspan y="13" font-family="Roboto-Regular, Roboto" font-weight="400"> </tspan><tspan x="6.213" y="37" font-family="Roboto-Regular, Roboto" font-weight="400">instrumentos para la sistematización </tspan><tspan x="47.861" y="61" font-family="Roboto-Regular, Roboto" font-weight="400">del Sistema de Gestión.</tspan></text>
    <text id="elementos_normativos_y_utilidades_que_soportan_el_sistema_de_gestión." data-name="elementos normativos y utilidades que soportan el sistema de gestión." transform="translate(862.063 890.398)" font-size="14" font-family="Roboto-Regular, Roboto"><tspan x="7.714" y="13">elementos normativos y utilidades que </tspan><tspan x="29.705" y="37">soportan el sistema de gestión.</tspan></text>
    <text id="Procesos:" transform="translate(608.484 854.195)" fill="#12263f" font-size="20" font-family="Roboto-Bold, Roboto" font-weight="700"><tspan x="0" y="0">Procesos:</tspan></text>
    <text id="Documento:" transform="translate(531.063 515.985)" fill="#12263f" font-size="20" font-family="Roboto-Bold, Roboto" font-weight="700"><tspan x="0" y="0">Documento:</tspan></text>
    <text id="Herramientas_para_la_Gestión_de_Archivo:" data-name="Herramientas para
la Gestión de Archivo:" transform="translate(994.063 848)" fill="#12263f" font-size="20" font-family="Roboto-Bold, Roboto" font-weight="700"><tspan x="-83.521" y="0">Herramientas para</tspan><tspan x="-98.369" y="30">la Gestión de Archivo:</tspan></text>
  </g>
</svg>
