<svg xmlns="http://www.w3.org/2000/svg" xmlns:xlink="http://www.w3.org/1999/xlink" width="100" height="100" viewBox="0 0 100 100">
  <defs>
    <filter id="Rect치ngulo_41488" x="0" y="0" width="100" height="100" filterUnits="userSpaceOnUse">
      <feOffset dy="3" input="SourceAlpha"/>
      <feGaussianBlur stdDeviation="3" result="blur"/>
      <feFlood flood-opacity="0.161"/>
      <feComposite operator="in" in2="blur"/>
      <feComposite in="SourceGraphic"/>
    </filter>
  </defs>
  <g id="Grupo_118198" data-name="Grupo 118198" transform="translate(-1096.333 -103)">
    <g transform="matrix(1, 0, 0, 1, 1096.33, 103)" filter="url(#Rect치ngulo_41488)">
      <rect id="Rect치ngulo_41488-2" data-name="Rect치ngulo 41488" width="82" height="82" rx="23" transform="translate(9 6)" fill="#fff"/>
    </g>
    <g id="Grupo_116722" data-name="Grupo 116722" transform="translate(1076.444 84.538)">
      <path id="Trazado_164945" data-name="Trazado 164945" d="M53.624,34.039H84.211a2.424,2.424,0,0,1,1.6,2.649c-.076.9-.019,1.8-.022,2.7q0,8.183.007,16.365a4,4,0,0,1-.4-.13A17.674,17.674,0,0,0,74.75,54.352,18.221,18.221,0,0,0,61.383,79.7a18.788,18.788,0,0,0,4.934,6.581c1.007.883,2.14,1.575,3.221,2.347-.141.009-.282.025-.422.025l-25.068,0c-.991,0-1.982,0-2.972,0A2.172,2.172,0,0,1,38.7,86.295q0-18.347,0-36.695c0-.214-.073-.449.111-.634q6.4,0,12.8.005a1.92,1.92,0,0,0,2.024-2.023q.009-6.4,0-12.793A.921.921,0,0,1,53.624,34.039Zm.088,22.472h4.123c1.819,0,3.638-.006,5.456,0a1.042,1.042,0,0,0,1.077-.8,1.007,1.007,0,0,0-.476-1.147,1.32,1.32,0,0,0-.878-.148q-9.306,0-18.613,0a3.675,3.675,0,0,0-.484.012,1,1,0,0,0-.857.674c-.283.738.243,1.406,1.133,1.408Q48.953,56.518,53.713,56.511Zm-1.084,2.165H46.81c-.909,0-1.819-.012-2.727.006a1.088,1.088,0,0,0-1.108.993,1.133,1.133,0,0,0,.959,1.147,3.12,3.12,0,0,0,.544.021H60.722a2.212,2.212,0,0,0,.836-.1,1.053,1.053,0,0,0,.286-1.816,1.412,1.412,0,0,0-.971-.252Q56.75,58.679,52.629,58.676Zm-1.277,6.431c2.364,0,4.727,0,7.091,0a1.208,1.208,0,0,0,1.081-.417,1.013,1.013,0,0,0,.116-1.136,1.168,1.168,0,0,0-1.159-.618q-7.091,0-14.182,0c-.809,0-1.344.46-1.33,1.1s.526,1.06,1.353,1.061Q47.837,65.109,51.352,65.107Zm-.88,6.428q-3.092,0-6.184,0a1.27,1.27,0,0,0-.862.213,1,1,0,0,0-.406,1.119,1.154,1.154,0,0,0,1.253.836q6.184,0,12.368,0c.825,0,1.342-.431,1.343-1.083s-.51-1.08-1.329-1.082Q53.564,71.53,50.472,71.535Zm.221-2.166c2.2,0,4.4.008,6.606,0a1.043,1.043,0,1,0,0-2.085q-6.606-.012-13.212,0a.935.935,0,0,0-.676.208,1.011,1.011,0,0,0-.367,1.131,1.046,1.046,0,0,0,1.108.756ZM45.637,85.488c.829,0,1.659.006,2.488,0,.777-.007,1.253-.425,1.256-1.086s-.472-1.084-1.251-1.089c-1.173-.007-2.347-.021-3.519.007-.463.011-.589-.151-.58-.595.025-1.213.014-2.427,0-3.64a1.046,1.046,0,0,0-.912-1.1,1.013,1.013,0,0,0-1.164.819,1.707,1.707,0,0,0-.091.473c-.007,1.638-.024,3.276,0,4.914.015.893.482,1.295,1.4,1.3C44.059,85.492,44.848,85.488,45.637,85.488Zm37-44.425c0-.848.008-1.7,0-2.545-.01-.81-.342-1.258-1.14-1.283-1.735-.054-3.474-.045-5.21-.006a1.135,1.135,0,0,0-1.163,1.151,1.152,1.152,0,0,0,1.285,1c1.131,0,2.264.031,3.394-.011.554-.021.687.175.67.694-.036,1.09-.012,2.181-.01,3.272,0,.9.379,1.379,1.075,1.387s1.1-.475,1.1-1.357C82.635,42.6,82.633,41.83,82.632,41.062Z" transform="translate(0 0)" fill="#f8e9af"/>
      <path id="Trazado_164946" data-name="Trazado 164946" d="M396.494,390.712c-.164.066-.138.236-.185.359a3.4,3.4,0,0,1-5.669,1.278c-1.263-1.218-2.5-2.466-3.745-3.7-1.061-1.144-2.155-2.255-3.311-3.3a1.162,1.162,0,0,1,.172-.166,18.141,18.141,0,0,0,4.633-4.213c.086-.111.164-.236.336-.212,1.905,1.915,3.8,3.838,5.719,5.742a7.154,7.154,0,0,1,2.048,2.759Z" transform="translate(-295.656 -297.209)" fill="#e54c3c"/>
      <path id="Trazado_164947" data-name="Trazado 164947" d="M219.841,203.59c-.172-.025-.25.1-.336.212a18.141,18.141,0,0,1-4.633,4.213,1.164,1.164,0,0,0-.172.166c-.18.089-.365.169-.54.266a18.225,18.225,0,0,1-13.149,1.946,24.781,24.781,0,0,1-4.7-1.72c-1.081-.772-2.214-1.464-3.221-2.347a18.788,18.788,0,0,1-4.934-6.581A18.231,18.231,0,0,1,201.52,174.4a17.673,17.673,0,0,1,10.647,1.275,4,4,0,0,0,.4.13,21.982,21.982,0,0,1,5.208,3.717c.042.041.149.017.225.023a.9.9,0,0,0,.314.629,17.505,17.505,0,0,1,4.81,10.08,18.147,18.147,0,0,1-1.675,10.455,13.15,13.15,0,0,1-1.3,2.184A.98.98,0,0,0,219.841,203.59Zm-23.683,2.341a6.216,6.216,0,0,0,.529.4,15.675,15.675,0,0,0,11.583,2.04,15.965,15.965,0,0,0,12.638-18.711,14.826,14.826,0,0,0-4.3-8.167,4.09,4.09,0,0,0-.344-.414,15.7,15.7,0,0,0-13.84-4.255,16.06,16.06,0,0,0-10.588,24.854A14.049,14.049,0,0,0,196.158,205.931Z" transform="translate(-126.77 -120.044)" fill="#eaeeee"/>
      <path id="Trazado_164948" data-name="Trazado 164948" d="M101.717,413.417a24.778,24.778,0,0,0,4.7,1.72,18.224,18.224,0,0,0,13.149-1.946c.175-.1.36-.178.54-.266,1.156,1.049,2.25,2.16,3.311,3.3-.009.018-.024.037-.025.055-.015,1.969-1.152,2.544-2.964,2.538-13.851-.04-27.7-.022-41.552-.022-1.894,0-2.655-.754-2.656-2.631q0-1.365,0-2.729l25.067,0C101.435,413.442,101.576,413.426,101.717,413.417Z" transform="translate(-32.178 -324.789)" fill="#e3bf5c"/>
      <path id="Trazado_164949" data-name="Trazado 164949" d="M39.558,49.661c.091-.107.176-.22.275-.319q7.109-7.11,14.221-14.218c.1-.1.213-.183.32-.274q0,6.4,0,12.793a1.92,1.92,0,0,1-2.024,2.023Q45.956,49.675,39.558,49.661Z" transform="translate(-0.749 -0.695)" fill="#f2d45b"/>
      <path id="Trazado_164950" data-name="Trazado 164950" d="M374.043,91.6c-.077-.006-.184.019-.225-.023a21.981,21.981,0,0,0-5.208-3.717q0-8.183-.007-16.365c1.009,0,2.019-.007,3.028,0a2.206,2.206,0,0,1,2.394,2.367c.016,1.09,0,2.18,0,3.27Q374.035,84.365,374.043,91.6Z" transform="translate(-282.812 -32.105)" fill="#e3c05d"/>
      <path id="Trazado_164951" data-name="Trazado 164951" d="M79.524,178.806q-4.759,0-9.519,0c-.891,0-1.416-.669-1.133-1.408a1,1,0,0,1,.857-.674,3.678,3.678,0,0,1,.484-.012q9.306,0,18.613,0a1.32,1.32,0,0,1,.878.148,1.006,1.006,0,0,1,.476,1.147,1.042,1.042,0,0,1-1.077.8c-1.819-.007-3.638,0-5.456,0Z" transform="translate(-25.812 -122.295)" fill="#a59078"/>
      <path id="Trazado_164952" data-name="Trazado 164952" d="M78.36,206.567q4.122,0,8.243,0a1.412,1.412,0,0,1,.971.252,1.053,1.053,0,0,1-.286,1.816,2.211,2.211,0,0,1-.836.1H70.209a3.123,3.123,0,0,1-.544-.021,1.133,1.133,0,0,1-.959-1.147,1.088,1.088,0,0,1,1.108-.993c.909-.017,1.818-.006,2.727-.006Z" transform="translate(-25.731 -147.891)" fill="#a69179"/>
      <path id="Trazado_164953" data-name="Trazado 164953" d="M77.072,238.606q-3.515,0-7.03,0c-.827,0-1.339-.407-1.353-1.061s.521-1.1,1.33-1.1q7.091-.007,14.182,0a1.168,1.168,0,0,1,1.159.618,1.013,1.013,0,0,1-.116,1.136,1.208,1.208,0,0,1-1.081.417C81.8,238.6,79.435,238.606,77.072,238.606Z" transform="translate(-25.719 -173.499)" fill="#a69179"/>
      <path id="Trazado_164954" data-name="Trazado 164954" d="M76.226,296.642q3.092,0,6.184,0c.819,0,1.33.424,1.329,1.082s-.519,1.082-1.343,1.083q-6.184.006-12.368,0a1.154,1.154,0,0,1-1.253-.836,1,1,0,0,1,.406-1.119,1.27,1.27,0,0,1,.862-.214Q73.134,296.645,76.226,296.642Z" transform="translate(-25.754 -225.107)" fill="#a69279"/>
      <path id="Trazado_164955" data-name="Trazado 164955" d="M76.507,268.9H69.962a1.046,1.046,0,0,1-1.108-.756,1.011,1.011,0,0,1,.367-1.131.935.935,0,0,1,.676-.209q6.606,0,13.212,0a1.043,1.043,0,1,1,0,2.085C80.911,268.91,78.709,268.9,76.507,268.9Z" transform="translate(-25.814 -199.534)" fill="#a59078"/>
      <path id="Trazado_164956" data-name="Trazado 164956" d="M64.681,349.211c-.789,0-1.578,0-2.366,0-.916-.006-1.384-.408-1.4-1.3-.028-1.638-.01-3.276,0-4.914a1.707,1.707,0,0,1,.091-.473,1.013,1.013,0,0,1,1.164-.819,1.046,1.046,0,0,1,.912,1.1c.009,1.213.02,2.427,0,3.64-.009.444.118.606.58.595,1.172-.028,2.346-.015,3.519-.007.779,0,1.254.427,1.251,1.089s-.479,1.079-1.256,1.086C66.339,349.216,65.51,349.211,64.681,349.211Z" transform="translate(-19.044 -263.723)" fill="#fefefc"/>
      <path id="Trazado_164957" data-name="Trazado 164957" d="M301.355,60.019c0,.768,0,1.535,0,2.3,0,.883-.4,1.365-1.1,1.357s-1.073-.491-1.075-1.387c0-1.091-.025-2.182.01-3.272.017-.519-.116-.715-.67-.694-1.13.042-2.262.016-3.394.011a1.152,1.152,0,0,1-1.285-1A1.135,1.135,0,0,1,295,56.185c1.736-.039,3.475-.047,5.21.006.8.025,1.13.473,1.14,1.283C301.363,58.322,301.355,59.171,301.355,60.019Z" transform="translate(-218.722 -18.957)" fill="#fefefc"/>
      <path id="Trazado_164958" data-name="Trazado 164958" d="M263.4,222.271a14.826,14.826,0,0,1,4.3,8.167A15.965,15.965,0,0,1,255.07,249.15a15.675,15.675,0,0,1-11.583-2.04,6.192,6.192,0,0,1-.529-.4,1,1,0,0,0-.159-.631,17.913,17.913,0,0,1-1.635-7.466q2.132,2.113,4.265,4.226c.817.81,1.232.822,2.119.061q4.144-3.555,8.29-7.107,3.777-3.237,7.555-6.473c.944-.81.98-1.244.185-2.174l-.789-.921c-.8-.935-1.246-.968-2.166-.178q-6.792,5.826-13.58,11.656c-.3.254-.457.255-.729-.026-1.027-1.06-2.089-2.087-3.122-3.142a1.292,1.292,0,0,0-1.306-.434,2.818,2.818,0,0,1,.065-.415,17.128,17.128,0,0,1,3.945-6.721,16.72,16.72,0,0,1,5.617-3.908,17.167,17.167,0,0,1,10.411-1.034A3.959,3.959,0,0,0,263.4,222.271Z" transform="translate(-173.569 -160.826)" fill="#25ae5f"/>
      <path id="Trazado_164959" data-name="Trazado 164959" d="M231.453,196.49a3.959,3.959,0,0,1-1.48-.246,17.166,17.166,0,0,0-10.411,1.034,16.72,16.72,0,0,0-5.617,3.908A17.129,17.129,0,0,0,210,207.908a2.825,2.825,0,0,0-.065.415,13.678,13.678,0,0,0-1.791,1.693,1.062,1.062,0,0,0-.016,1.69c.356.381.723.753,1.085,1.129a17.913,17.913,0,0,0,1.635,7.466,1,1,0,0,1,.159.631,14.047,14.047,0,0,1-4.328-4.256,16.06,16.06,0,0,1,10.588-24.854,15.7,15.7,0,0,1,13.84,4.255A4.09,4.09,0,0,1,231.453,196.49Z" transform="translate(-141.62 -135.046)" fill="#4fb96f"/>
      <path id="Trazado_164960" data-name="Trazado 164960" d="M232.183,261.649c-.362-.376-.729-.747-1.085-1.129a1.062,1.062,0,0,1,.016-1.69,13.677,13.677,0,0,1,1.791-1.694,1.292,1.292,0,0,1,1.306.434c1.033,1.055,2.095,2.082,3.122,3.142.272.281.434.28.729.026q6.781-5.839,13.58-11.656c.92-.789,1.366-.756,2.166.178l.789.921c.795.93.759,1.364-.186,2.174q-3.777,3.237-7.555,6.473-4.146,3.553-8.29,7.107c-.887.761-1.3.749-2.119-.061Q234.317,263.76,232.183,261.649Z" transform="translate(-164.589 -183.859)" fill="#fcfdfd"/>
    </g>
  </g>
</svg>
